<?xml version="1.0" ?><svg id="Layer_1" style="enable-background:new 0 0 96 96;" version="1.1" viewBox="0 0 96 96" xml:space="preserve" xmlns="http://www.w3.org/2000/svg" xmlns:xlink="http://www.w3.org/1999/xlink"><path d="M65.5,36.6c0,0,0.1,0,0.2,0c0.8-0.2,1.7-0.5,2.6-0.7v-7c0-2.6,2-4.6,4.6-4.6H83c2.6,0,4.6,1.9,4.6,4.6l0,5.9H91  c2.7,0,4.8,2.2,4.8,4.8v8c0,2.7-2.2,4.8-4.8,4.8h-3.5c0,3.5,0,7,0,10.5c0.3,0.1,0.7,0.1,0.9,0.1c0.9,0,1.8-0.2,2.7-0.2  c2.7,0,4.8,2.2,4.8,4.8l0,7c0,2-1.2,3.8-3.1,4.5c-2,0.7-5.2,1.2-7.3,1.2c-10.7,0-17.4-5.2-17.4-16.5c0-3.8,0-7.6,0-11.4H67  c-0.2,0-0.3,0-0.5,0c0,3.7,0,7.5,0,11.2c0,3.5,0,7,0,10.5c0,3.1-2.1,5.3-5.2,5.3c-2.1,0-4.1,0-6.2,0c-0.8,0-1.8,0.1-2.7,0  c-2.5,0-4.5-1.4-5.2-3.6c-4.7,3.2-12.1,4.7-17.6,4.7C9.1,80.4,0,68.8,0,48.7c0-19.2,7.5-33.1,27.9-33.1c4.7,0,13.2,0.6,17.3,3.5  c1.3,0.9,2,2.4,2,3.9v0.5l-2,8.5c-0.4,2.8-3.3,4.9-6.1,4c-3.3-1-5.4-1.4-9-1.4c-8.9,0-10.2,5.3-10.2,13.5c0,6.1,0.6,13.3,8.1,13.3  c0.5,0,1.1,0,1.8,0v-3.2h-2.9c-2.7,0-4.8-2.2-4.8-4.8v-8.6c0-2.7,2.2-4.8,4.8-4.8h17.6c0.9,0,1.7,0.2,2.5,0.7v-1  c0-1.5,0.7-2.9,1.8-3.8c-1.4-1.8-2.3-4.1-2.3-6.5c0-5.8,4.6-10.5,10.4-10.5c5.8,0,10.4,4.7,10.4,10.5c0,2.5-0.9,4.8-2.3,6.6  C65.1,36.1,65.3,36.3,65.5,36.6L65.5,36.6z M44.4,43.9H26.8c-0.5,0-0.8,0.4-0.8,0.8v8.6c0,0.5,0.4,0.8,0.8,0.8h6.9v10.7  c0,0-1.5,0.5-5.8,0.5c-5,0-12.1-1.8-12.1-17.3c0-15.5,7.3-17.5,14.2-17.5c6,0,8.5,1,10.2,1.6c0.5,0.2,1-0.4,1-0.8l2-8.3  c0-0.2-0.1-0.5-0.3-0.6c-0.7-0.5-4.7-2.7-14.9-2.7C16.1,19.6,4,24.6,4,48.7c0,24.1,13.8,27.7,25.5,27.7c9.7,0,15.5-4.1,15.5-4.1  c0.2-0.1,0.3-0.5,0.3-0.6V44.7C45.3,44.3,44.9,43.9,44.4,43.9L44.4,43.9z M63.2,29.3L63.2,29.3c0-3.6-2.9-6.5-6.4-6.5  c-3.5,0-6.4,2.9-6.4,6.5c0,3.6,2.9,6.5,6.4,6.5C60.3,35.8,63.2,32.9,63.2,29.3L63.2,29.3z M62.5,63.5L62.5,63.5c0-1.3,0-24,0-24  c0-0.5-0.4-0.8-0.8-0.8h-9.9c-0.5,0-0.9,0.5-0.9,0.9c0,0,0,28.9,0,34.4c0,1,0.6,1.3,1.4,1.3c0,0,4.2,0,8.9,0c1,0,1.2-0.5,1.2-1.3  C62.5,72.2,62.5,64.9,62.5,63.5L62.5,63.5z M91,38.7L91,38.7h-7.5l0-9.8c0-0.4-0.2-0.6-0.6-0.6H72.8c-0.4,0-0.6,0.2-0.6,0.6V39  c0,0-5.1,1.2-5.4,1.3c-0.3,0.1-0.6,0.4-0.6,0.8v6.4c0,0.5,0.4,0.8,0.8,0.8h5.2c0,0,0,6.7,0,15.4c0,11.4,8,12.5,13.4,12.5  c2.5,0,5.4-0.8,5.9-1c0.3-0.1,0.5-0.4,0.5-0.8l0-7c0-0.5-0.4-0.8-0.8-0.8c-0.4,0-1.5,0.2-2.7,0.2c-3.7,0-4.9-1.7-4.9-3.9  c0-2.2,0-14.6,0-14.6H91c0.5,0,0.8-0.4,0.8-0.8v-8C91.9,39.1,91.5,38.7,91,38.7z"/></svg>